Coordinates
version=1
nRows=22
nColumns=24
inDegrees=yes

Units are S.I. units (second, meters, Newtons, ...)
Angles are in degrees.

endheader
time	pelvis_tilt	pelvis_list	pelvis_rotation	pelvis_tx	pelvis_ty	pelvis_tz	hip_flexion_r	hip_adduction_r	hip_rotation_r	knee_angle_r	ankle_angle_r	subtalar_angle_r	mtp_angle_r	hip_flexion_l	hip_adduction_l	hip_rotation_l	knee_angle_l	ankle_angle_l	subtalar_angle_l	mtp_angle_l	lumbar_extension	lumbar_bending	lumbar_rotation
      4.92500000	    -10.41474479	      0.94476294	     -3.93330370	     -1.25185197	     -0.02894624	     -0.29864689	     -3.88019413	      1.61129903	     10.02192165	    -17.03124849	      7.92603597	      4.21509514	     20.31867582	     34.03667735	     -1.81083341	      0.11809650	     -7.49270436	      0.27402702	      1.15647229	      7.13307758	      6.20897964	     -1.51760694	     14.57827516
      4.93000000	    -10.50705622	      1.06362312	     -4.02215515	     -1.24508835	     -0.02990402	     -0.29950725	     -3.95881849	      1.36199157	      9.79638433	    -17.47356465	      7.71049980	      4.76374257	     20.67885961	     34.10403653	     -1.71796141	     -0.12496658	     -8.09958057	     -0.03384199	      1.04973816	      7.36255578	      6.47665653	     -1.60910378	     14.65852420
      4.93500000	    -10.59215537	      1.15879135	     -4.08613039	     -1.23838450	     -0.03083136	     -0.30046071	     -4.01516817	      1.12687022	      9.50971542	    -17.95396168	      7.42714579	      5.39093998	     21.21384744	     34.17205050	     -1.62972190	     -0.33649162	     -8.70898670	     -0.50476222	      0.89994502	      7.83020577	      6.71604385	     -1.66835351	     14.68418655
      4.94000000	    -10.69632089	      1.33902437	     -4.15094397	     -1.23157905	     -0.03172554	     -0.30140354	     -4.04721017	      0.80540135	      9.27646749	    -18.44090946	      7.13558824	      5.94299048	     21.62217069	     34.25729689	     -1.45820421	     -0.61580760	     -9.33064503	     -1.03107124	      0.70917049	      8.19498669	      7.00472240	     -1.82319864	     14.73607237
      4.94500000	    -10.80310021	      1.53927090	     -4.16965929	     -1.22480745	     -0.03254420	     -0.30239845	     -4.04890969	      0.45863344	      8.95551838	    -18.96358229	      6.78959934	      6.54408645	     22.05056260	     34.35076875	     -1.24072084	     -0.83756246	     -9.94390003	     -1.65288178	      0.53476807	      8.58387100	      7.28549249	     -2.01125560	     14.73349225
      4.95000000	    -10.91492901	      1.78962432	     -4.16248414	     -1.21805396	     -0.03327090	     -0.30341049	     -4.01879334	      0.06071819	      8.62285117	    -19.52006648	      6.38935481	      7.12657417	     22.45490779	     34.45119004	     -0.95663966	     -1.02376185	    -10.55056797	     -2.31114142	      0.37280301	      8.92280885	      7.57229434	     -2.26349515	     14.70674763
      4.95500000	    -11.00861490	      2.02916537	     -4.05736067	     -1.21135280	     -0.03389646	     -0.30457709	     -4.01862035	     -0.33318426	      8.18712717	    -20.01280402	      5.71597242	      7.58823883	     23.39710792	     34.55243604	     -0.60971758	     -1.05409019	    -11.13280064	     -3.26577882	     -0.02675211	      9.89647429	      7.82207021	     -2.51493593	     14.61222442
      4.96000000	    -11.12711113	      2.36955514	     -4.03259017	     -1.20473483	     -0.03441323	     -0.30561921	     -3.89517055	     -0.83705238	      7.79708806	    -20.68620079	      5.28599265	      8.30453800	     23.70594555	     34.69783225	     -0.21691738	     -1.23359737	    -11.80636344	     -3.82018492	     -0.02577780	      9.99779489	      8.09661771	     -2.86420775	     14.59935112
      4.96500000	    -11.24610392	      2.72611169	     -3.89801884	     -1.19814737	     -0.03482795	     -0.30679339	     -3.76358521	     -1.36874346	      7.23459534	    -21.35550881	      4.74071939	      9.05529195	     24.18075717	     34.86060878	      0.27575994	     -1.17972312	    -12.49703307	     -4.45861640	     -0.15463183	     10.13233785	      8.36272004	     -3.25766654	     14.48761448
      4.97000000	    -11.36353991	      3.13930515	     -3.73935575	     -1.19155288	     -0.03512361	     -0.30792638	     -3.60107405	     -1.95504701	      6.69089245	    -22.07808861	      4.09386863	      9.76156292	     24.64737292	     35.00641772	      0.84348692	     -1.02824107	    -13.17508441	     -5.03346081	     -0.21351639	     10.20760482	      8.63078875	     -3.72989171	     14.30839749
      4.97500000	    -11.46710479	      3.54100290	     -3.53819773	     -1.18503481	     -0.03529428	     -0.30915816	     -3.41943006	     -2.55615660	      5.96690481	    -22.82541469	      3.31179292	     10.55024299	     25.30114603	     35.16023735	      1.45150233	     -0.75150213	    -13.90059484	     -5.62078958	     -0.37075159	     10.19860761	      8.86189761	     -4.18598300	     14.16134698
      4.98000000	    -11.56155785	      3.97216944	     -3.29205850	     -1.17851842	     -0.03536497	     -0.31036348	     -3.22969816	     -3.18588214	      5.23586218	    -23.60451124	      2.41574238	     11.29061278	     25.98144547	     35.30249817	      2.12200180	     -0.38072993	    -14.63981133	     -6.14234555	     -0.46072041	     10.05959739	      9.07793648	     -4.70061046	     13.97961370
      4.98500000	    -11.64255526	      4.41088490	     -3.03693418	     -1.17197307	     -0.03534748	     -0.31155477	     -3.01491526	     -3.83938076	      4.42776821	    -24.44332899	      1.39064056	     12.03802882	     26.70731761	     35.40648027	      2.82212961	      0.08126686	    -15.36154466	     -6.55770179	     -0.56164302	      9.76693564	      9.28210011	     -5.22755909	     13.75394938
      4.99000000	    -11.70486476	      4.86957041	     -2.76675117	     -1.16532413	     -0.03517786	     -0.31276209	     -2.83150145	     -4.52103114	      3.66256675	    -25.22475495	      0.01309775	     12.61017748	     27.89206967	     35.44863527	      3.58041373	      0.67724430	    -16.05134703	     -6.89208315	     -0.79696742	      8.96119364	      9.47955454	     -5.78306027	     13.52602831
      4.99500000	    -11.76213036	      5.25416909	     -2.45779672	     -1.15867741	     -0.03502642	     -0.31392097	     -2.60675204	     -5.14016045	      2.75301786	    -26.15374363	     -1.15408923	     13.46774354	     28.22108486	     35.50775144	      4.25670850	      1.10455051	    -16.77438924	     -7.08059611	     -0.62090288	      8.71614587	      9.65924422	     -6.27502470	     13.25970954
      5.00000000	    -11.79410785	      5.68108425	     -2.18522529	     -1.15199439	     -0.03474680	     -0.31511578	     -2.37782448	     -5.82488195	      1.86189381	    -27.06689814	     -2.71430468	     14.03720494	     29.17014136	     35.45894297	      5.01292146	      1.80940210	    -17.40317020	     -7.23766872	     -0.93271976	      7.64432717	      9.81747532	     -6.79892188	     13.04386131
      5.00500000	    -11.83755182	      6.01789139	     -1.86560264	     -1.14528436	     -0.03450315	     -0.31619678	     -2.11403395	     -6.40922763	      0.93852468	    -28.08976836	     -4.12196192	     14.76299798	     29.26905039	     35.43799136	      5.64969604	      2.23011648	    -18.03359671	     -7.34405925	     -0.80135571	      7.44826554	      9.98047349	     -7.26027830	     12.75640650
      5.01000000	    -11.87366068	      6.31415374	     -1.56199518	     -1.13857644	     -0.03423574	     -0.31749699	     -1.81446185	     -7.00126373	     -0.06226338	    -29.15111808	     -5.72179006	     15.43760438	     29.58607218	     35.33260388	      6.30400832	      2.95022568	    -18.56333076	     -7.43916352	     -1.18336032	      6.90013316	     10.13399097	     -7.62879064	     12.49825856
      5.01500000	    -11.88357566	      6.57971149	     -1.28430308	     -1.13191322	     -0.03389535	     -0.31866743	     -1.50802248	     -7.55028312	     -0.96365304	    -30.24740363	     -7.47399973	     15.91048848	     29.84817652	     35.17111317	      6.89417207	      3.54914854	    -19.04790257	     -7.45161483	     -1.45727760	      6.33269806	     10.24896729	     -7.97790541	     12.27769591
      5.02000000	    -11.90871473	      6.81591970	     -1.04398471	     -1.12513727	     -0.03354724	     -0.31977904	     -1.16370028	     -8.06566177	     -1.76656554	    -31.37031416	     -9.30031532	     16.23745051	     29.84716368	     34.97149693	      7.41945303	      4.01556436	    -19.44714569	     -7.37808112	     -1.72647905	      5.98290750	     10.41074302	     -8.28782393	     12.04867674
      5.02500000	    -11.92856746	      7.00442517	     -0.82610993	     -1.11850571	     -0.03318661	     -0.32090459	     -0.76277953	     -8.53948639	     -2.52271095	    -32.57037727	    -11.14421343	     16.45002514	     29.70641319	     34.73738187	      7.88449460	      4.46595789	    -19.78321306	     -7.29659808	     -2.03885857	      5.74691675	     10.54089239	     -8.53379722	     11.85995843
      5.03000000	    -11.95351641	      7.15223963	     -0.62080675	     -1.11196610	     -0.03283149	     -0.32207009	     -0.30884543	     -8.97800188	     -3.23292574	    -33.82567554	    -12.98802515	     16.53358659	     29.46750821	     34.47460984	      8.30199864	      4.89894048	    -20.05321123	     -7.17914768	     -2.38458503	      5.60683861	     10.66315017	     -8.72296945	     11.68430151
